<svg width="20" height="13" viewBox="0 0 20 13" xmlns="http://www.w3.org/2000/svg"><desc>Created with Sketch.</desc><path d="M21.5060714,21.814 L30.2228571,13 L11.7653571,13 L20.4825,21.814 C20.7653571,22.0996389 21.2235714,22.0996389 21.5060714,21.814 L21.5060714,21.814 Z M11.1114286,13.338 C11.0417857,13.4495833 11,13.5806667 11,13.7225833 L11,25.2781389 C11,25.4196944 11.0417857,25.5511389 11.1114286,25.6623611 L17.2025,19.49675 L11.1114286,13.338 L11.1114286,13.338 Z M30.8846429,13.3304167 L24.7864286,19.4963889 L30.8846429,25.6692222 C30.9571429,25.5565556 31,25.4222222 31,25.2777778 L31,13.7222222 C31,13.5777778 30.9571429,13.4438056 30.8846429,13.3304167 L30.8846429,13.3304167 Z M21.9903571,22.3231667 C21.4403571,22.8792778 20.5485714,22.8792778 19.9982143,22.3231667 L17.6967857,19.9961667 L11.7653571,26 L30.2235714,26 L24.2925,19.9961667 L21.9903571,22.3231667 L21.9903571,22.3231667 Z" transform="translate(-11 -13)" fill="none" fill-rule="evenodd"/></svg>