<svg width="19" height="17" viewBox="0 0 19 17" xmlns="http://www.w3.org/2000/svg"><desc>Created with Sketch.</desc><path d="M30,13.9386296 C29.3011563,14.2672963 28.5500625,14.4895556 27.7615625,14.589037 C28.5660938,14.0777778 29.1841875,13.2674444 29.475125,12.3028519 C28.72225,12.7763333 27.8874375,13.1201111 26.9997812,13.3052222 C26.2890625,12.5024444 25.276125,12 24.1545313,12 C22.0015937,12 20.2565625,13.8511111 20.2565625,16.1335185 C20.2565625,16.4577778 20.2904063,16.7732222 20.3575,17.0760741 C17.1174063,16.9029259 14.2454375,15.2577037 12.322875,12.7568148 C11.9874062,13.3675556 11.7950312,14.0777778 11.7950312,14.8352222 C11.7950312,16.2688889 12.4831875,17.5344444 13.5287812,18.2755185 C12.8899062,18.2541111 12.2890313,18.0683704 11.7635625,17.7585926 C11.7629688,17.7755926 11.7629688,17.7932222 11.7629688,17.8102222 C11.7629688,19.8130741 13.106625,21.4841111 14.89025,21.8637778 C14.5630938,21.9582222 14.2187188,22.0085926 13.8630625,22.0085926 C13.6119063,22.0085926 13.367875,21.9827778 13.1297813,21.9349259 C13.6255625,23.5763704 15.0654063,24.772037 16.77125,24.8054074 C15.4370937,25.9135556 13.7561875,26.5746667 11.9298125,26.5746667 C11.615125,26.5746667 11.3051875,26.5551481 11,26.5167407 C12.7248437,27.6897407 14.773875,28.3741481 16.9755,28.3741481 C24.145625,28.3741481 28.0661563,22.0753333 28.0661563,16.6126667 C28.0661563,16.4338519 28.0625938,16.2556667 28.054875,16.0781111 C28.8166563,15.4950741 29.4775,14.7672222 30,13.9386296" transform="translate(-11 -12)" fill="#3BB2E4" fill-rule="evenodd"/></svg>