<?xml version="1.0" encoding="UTF-8" standalone="no"?>
<svg width="19px" height="14px" viewBox="0 0 19 14" version="1.1" xmlns="http://www.w3.org/2000/svg" xmlns:xlink="http://www.w3.org/1999/xlink" xmlns:sketch="http://www.bohemiancoding.com/sketch/ns">
    <!-- Generator: Sketch 3.0.4 (8053) - http://www.bohemiancoding.com/sketch -->
    <title>Credit Card Icon</title>
    <desc>Created with Sketch.</desc>
    <defs></defs>
    <g id="Designs" stroke="none" stroke-width="1" fill="none" fill-rule="evenodd" sketch:type="MSPage">
        <g id="Desktop---Filling-/-Errors" sketch:type="MSArtboardGroup" transform="translate(-511.000000, -452.000000)">
            <g id="Checkout" sketch:type="MSLayerGroup" transform="translate(460.000000, 174.000000)">
                <g id="Container" sketch:type="MSShapeGroup">
                    <g id="Payment" transform="translate(39.000000, 238.000000)">
                        <g id="Card" transform="translate(1.000000, 28.000000)">
                            <g id="Credit-Card-Icon" transform="translate(11.000000, 12.000000)">
                                <path d="M1.99742191,0 C0.894276248,0 0,0.897060126 0,2.00585866 L0,11.9941413 C0,13.1019465 0.890925393,14 1.99742191,14 L17.0025781,14 C18.1057238,14 19,13.1029399 19,11.9941413 L19,2.00585866 C19,0.898053512 18.1090746,0 17.0025781,0 L1.99742191,0 Z M13,9 L13,11 L17,11 L17,9 L13,9 Z M0,4 L0,6 L19,6 L19,4 L0,4 Z" id="Rectangle-143"></path>
                            </g>
                        </g>
                    </g>
                </g>
            </g>
        </g>
    </g>
</svg>
