<?xml version="1.0" encoding="UTF-8" standalone="no"?>
<svg width="56px" height="52px" viewBox="0 0 56 52" version="1.1" xmlns="http://www.w3.org/2000/svg" xmlns:xlink="http://www.w3.org/1999/xlink" xmlns:sketch="http://www.bohemiancoding.com/sketch/ns">
    <!-- Generator: Sketch 3.0.4 (8053) - http://www.bohemiancoding.com/sketch -->
    <title>Shape</title>
    <desc>Created with Sketch.</desc>
    <defs></defs>
    <g id="Designs" stroke="none" stroke-width="1" fill="none" fill-rule="evenodd" sketch:type="MSPage">
        <g id="Desktop---Thank-You" sketch:type="MSArtboardGroup" transform="translate(-672.000000, -331.000000)" fill="#FFFFFF">
            <g id="Checkout" sketch:type="MSLayerGroup" transform="translate(460.000000, 271.000000)">
                <g id="Container" sketch:type="MSShapeGroup">
                    <g id="Checkout" transform="translate(0.000000, 60.000000)">
                        <g id="Icon" transform="translate(212.000000, 0.000000)">
                            <path d="M55.999,5 C55.999,2.238 53.761,0 50.999,0 C49.54,0 48.261,0.655 47.349,1.654 L47.314,1.621 L18.321,33.25 L8.535,23.465 L8.524,23.476 C7.621,22.57 6.38,22 5,22 C2.238,22 1.13686838e-13,24.238 1.13686838e-13,27 C1.13686838e-13,28.067 0.34,29.052 0.91,29.863 L0.903,29.867 L14.903,49.867 L14.91,49.863 C15.814,51.152 17.306,52 19,52 C20.622,52 22.049,51.216 22.962,50.019 L22.978,50.031 L54.978,8.031 L54.962,8.019 C55.603,7.178 55.999,6.14 55.999,5 L55.999,5 Z" id="Shape"></path>
                        </g>
                    </g>
                </g>
            </g>
        </g>
    </g>
</svg>
